<mxfile host="app.diagrams.net" modified="2021-02-05T05:08:31.351Z" agent="5.0 (Windows NT 10.0; Win64; x64) AppleWebKit/537.36 (KHTML, like Gecko) Chrome/88.0.4324.146 Safari/537.36" etag="9DboyPfW2G2vhxpt9L3J" version="14.2.9" type="github">
  <diagram name="Page-1" id="e7e014a7-5840-1c2e-5031-d8a46d1fe8dd">
    <mxGraphModel dx="1038" dy="556" grid="1" gridSize="10" guides="1" tooltips="1" connect="1" arrows="1" fold="1" page="1" pageScale="1" pageWidth="1600" pageHeight="900" background="#ffffff" math="0" shadow="0">
      <root>
        <mxCell id="0" />
        <mxCell id="1" parent="0" />
        <mxCell id="wm7McS8ciFP9YZ9LBugO-41" value="&amp;nbsp;registration" style="rounded=1;whiteSpace=wrap;html=1;" parent="1" vertex="1">
          <mxGeometry x="150" y="230" width="80" height="40" as="geometry" />
        </mxCell>
        <mxCell id="wm7McS8ciFP9YZ9LBugO-42" value="" style="endArrow=none;dashed=1;html=1;dashPattern=1 3;strokeWidth=2;exitX=0.25;exitY=0;exitDx=0;exitDy=0;" parent="1" source="wm7McS8ciFP9YZ9LBugO-41" edge="1">
          <mxGeometry width="50" height="50" relative="1" as="geometry">
            <mxPoint x="100" y="240" as="sourcePoint" />
            <mxPoint x="120" y="190" as="targetPoint" />
          </mxGeometry>
        </mxCell>
        <mxCell id="wm7McS8ciFP9YZ9LBugO-45" value="" style="endArrow=none;dashed=1;html=1;dashPattern=1 3;strokeWidth=2;exitX=0.729;exitY=1.025;exitDx=0;exitDy=0;exitPerimeter=0;" parent="1" source="wm7McS8ciFP9YZ9LBugO-49" edge="1">
          <mxGeometry width="50" height="50" relative="1" as="geometry">
            <mxPoint x="70" y="240" as="sourcePoint" />
            <mxPoint x="150" y="250" as="targetPoint" />
          </mxGeometry>
        </mxCell>
        <mxCell id="wm7McS8ciFP9YZ9LBugO-47" value="name" style="ellipse;whiteSpace=wrap;html=1;" parent="1" vertex="1">
          <mxGeometry x="80" y="150" width="90" height="40" as="geometry" />
        </mxCell>
        <mxCell id="wm7McS8ciFP9YZ9LBugO-49" value="mailid" style="ellipse;whiteSpace=wrap;html=1;" parent="1" vertex="1">
          <mxGeometry x="10" y="190" width="90" height="40" as="geometry" />
        </mxCell>
        <mxCell id="wm7McS8ciFP9YZ9LBugO-50" value="" style="endArrow=none;dashed=1;html=1;dashPattern=1 3;strokeWidth=2;entryX=0;entryY=1;entryDx=0;entryDy=0;" parent="1" target="wm7McS8ciFP9YZ9LBugO-41" edge="1">
          <mxGeometry width="50" height="50" relative="1" as="geometry">
            <mxPoint x="90" y="270" as="sourcePoint" />
            <mxPoint x="140" y="260" as="targetPoint" />
          </mxGeometry>
        </mxCell>
        <mxCell id="wm7McS8ciFP9YZ9LBugO-51" value="" style="endArrow=none;dashed=1;html=1;dashPattern=1 3;strokeWidth=2;entryX=0.5;entryY=0;entryDx=0;entryDy=0;exitX=0.5;exitY=1;exitDx=0;exitDy=0;exitPerimeter=0;" parent="1" source="wm7McS8ciFP9YZ9LBugO-53" target="wm7McS8ciFP9YZ9LBugO-41" edge="1">
          <mxGeometry width="50" height="50" relative="1" as="geometry">
            <mxPoint x="205" y="170" as="sourcePoint" />
            <mxPoint x="244.39" y="230" as="targetPoint" />
          </mxGeometry>
        </mxCell>
        <mxCell id="wm7McS8ciFP9YZ9LBugO-52" value="" style="endArrow=none;dashed=1;html=1;dashPattern=1 3;strokeWidth=2;entryX=0.335;entryY=1.085;entryDx=0;entryDy=0;entryPerimeter=0;" parent="1" target="wm7McS8ciFP9YZ9LBugO-41" edge="1">
          <mxGeometry width="50" height="50" relative="1" as="geometry">
            <mxPoint x="100" y="320" as="sourcePoint" />
            <mxPoint x="204.39" y="319" as="targetPoint" />
          </mxGeometry>
        </mxCell>
        <mxCell id="wm7McS8ciFP9YZ9LBugO-53" value="#reg_id" style="ellipse;whiteSpace=wrap;html=1;" parent="1" vertex="1">
          <mxGeometry x="160" y="120" width="90" height="40" as="geometry" />
        </mxCell>
        <mxCell id="wm7McS8ciFP9YZ9LBugO-54" value="password" style="ellipse;whiteSpace=wrap;html=1;" parent="1" vertex="1">
          <mxGeometry x="10" y="250" width="90" height="40" as="geometry" />
        </mxCell>
        <mxCell id="wm7McS8ciFP9YZ9LBugO-55" value="created_on" style="ellipse;whiteSpace=wrap;html=1;" parent="1" vertex="1">
          <mxGeometry x="20" y="300" width="90" height="40" as="geometry" />
        </mxCell>
        <mxCell id="wm7McS8ciFP9YZ9LBugO-56" value="" style="endArrow=none;dashed=1;html=1;dashPattern=1 3;strokeWidth=2;entryX=1;entryY=0.75;entryDx=0;entryDy=0;" parent="1" target="wm7McS8ciFP9YZ9LBugO-41" edge="1">
          <mxGeometry width="50" height="50" relative="1" as="geometry">
            <mxPoint x="280" y="310" as="sourcePoint" />
            <mxPoint x="270" y="270" as="targetPoint" />
          </mxGeometry>
        </mxCell>
        <mxCell id="wm7McS8ciFP9YZ9LBugO-57" value="&lt;b&gt;&lt;font style=&quot;font-size: 14px&quot;&gt;Has&lt;/font&gt;&lt;/b&gt;" style="rounded=0;whiteSpace=wrap;html=1;" parent="1" vertex="1">
          <mxGeometry x="280" y="290" width="80" height="40" as="geometry" />
        </mxCell>
        <mxCell id="wm7McS8ciFP9YZ9LBugO-70" value="teacher" style="rounded=1;whiteSpace=wrap;html=1;" parent="1" vertex="1">
          <mxGeometry x="430" y="140" width="80" height="40" as="geometry" />
        </mxCell>
        <mxCell id="wm7McS8ciFP9YZ9LBugO-71" value="" style="endArrow=none;dashed=1;html=1;dashPattern=1 3;strokeWidth=2;entryX=0.5;entryY=1;entryDx=0;entryDy=0;" parent="1" target="wm7McS8ciFP9YZ9LBugO-78" edge="1">
          <mxGeometry width="50" height="50" relative="1" as="geometry">
            <mxPoint x="500" y="140" as="sourcePoint" />
            <mxPoint x="550" y="90" as="targetPoint" />
          </mxGeometry>
        </mxCell>
        <mxCell id="wm7McS8ciFP9YZ9LBugO-72" value="" style="endArrow=none;dashed=1;html=1;dashPattern=1 3;strokeWidth=2;" parent="1" edge="1">
          <mxGeometry width="50" height="50" relative="1" as="geometry">
            <mxPoint x="510" y="160" as="sourcePoint" />
            <mxPoint x="580" y="130" as="targetPoint" />
          </mxGeometry>
        </mxCell>
        <mxCell id="wm7McS8ciFP9YZ9LBugO-73" value="" style="endArrow=none;dashed=1;html=1;dashPattern=1 3;strokeWidth=2;exitX=1;exitY=1;exitDx=0;exitDy=0;entryX=0;entryY=0.5;entryDx=0;entryDy=0;" parent="1" source="wm7McS8ciFP9YZ9LBugO-70" target="wm7McS8ciFP9YZ9LBugO-80" edge="1">
          <mxGeometry width="50" height="50" relative="1" as="geometry">
            <mxPoint x="520" y="170" as="sourcePoint" />
            <mxPoint x="590" y="170" as="targetPoint" />
          </mxGeometry>
        </mxCell>
        <mxCell id="wm7McS8ciFP9YZ9LBugO-74" value="" style="endArrow=none;dashed=1;html=1;dashPattern=1 3;strokeWidth=2;exitX=0.5;exitY=0;exitDx=0;exitDy=0;" parent="1" source="wm7McS8ciFP9YZ9LBugO-70" edge="1">
          <mxGeometry width="50" height="50" relative="1" as="geometry">
            <mxPoint x="450" y="140" as="sourcePoint" />
            <mxPoint x="480" y="70" as="targetPoint" />
          </mxGeometry>
        </mxCell>
        <mxCell id="wm7McS8ciFP9YZ9LBugO-75" value="" style="endArrow=none;dashed=1;html=1;dashPattern=1 3;strokeWidth=2;" parent="1" edge="1">
          <mxGeometry width="50" height="50" relative="1" as="geometry">
            <mxPoint x="480" y="185" as="sourcePoint" />
            <mxPoint x="540" y="220" as="targetPoint" />
          </mxGeometry>
        </mxCell>
        <mxCell id="wm7McS8ciFP9YZ9LBugO-76" value="" style="endArrow=none;dashed=1;html=1;dashPattern=1 3;strokeWidth=2;exitX=1;exitY=1;exitDx=0;exitDy=0;" parent="1" edge="1">
          <mxGeometry width="50" height="50" relative="1" as="geometry">
            <mxPoint x="450" y="180" as="sourcePoint" />
            <mxPoint x="500" y="240" as="targetPoint" />
          </mxGeometry>
        </mxCell>
        <mxCell id="wm7McS8ciFP9YZ9LBugO-77" value="classname" style="ellipse;whiteSpace=wrap;html=1;" parent="1" vertex="1">
          <mxGeometry x="430" y="40" width="90" height="40" as="geometry" />
        </mxCell>
        <mxCell id="wm7McS8ciFP9YZ9LBugO-78" value="section" style="ellipse;whiteSpace=wrap;html=1;" parent="1" vertex="1">
          <mxGeometry x="530" y="50" width="90" height="40" as="geometry" />
        </mxCell>
        <mxCell id="wm7McS8ciFP9YZ9LBugO-79" value="name" style="ellipse;whiteSpace=wrap;html=1;" parent="1" vertex="1">
          <mxGeometry x="580" y="110" width="90" height="40" as="geometry" />
        </mxCell>
        <mxCell id="wm7McS8ciFP9YZ9LBugO-80" value="subject" style="ellipse;whiteSpace=wrap;html=1;" parent="1" vertex="1">
          <mxGeometry x="580" y="160" width="90" height="40" as="geometry" />
        </mxCell>
        <mxCell id="wm7McS8ciFP9YZ9LBugO-81" value="mailid" style="ellipse;whiteSpace=wrap;html=1;" parent="1" vertex="1">
          <mxGeometry x="530" y="200" width="90" height="40" as="geometry" />
        </mxCell>
        <mxCell id="wm7McS8ciFP9YZ9LBugO-82" value="created_on" style="ellipse;whiteSpace=wrap;html=1;" parent="1" vertex="1">
          <mxGeometry x="460" y="240" width="90" height="40" as="geometry" />
        </mxCell>
        <mxCell id="wm7McS8ciFP9YZ9LBugO-83" value="" style="endArrow=none;dashed=1;html=1;dashPattern=1 3;strokeWidth=2;entryX=0.25;entryY=0;entryDx=0;entryDy=0;exitX=0.68;exitY=1.085;exitDx=0;exitDy=0;exitPerimeter=0;" parent="1" source="wm7McS8ciFP9YZ9LBugO-84" target="wm7McS8ciFP9YZ9LBugO-70" edge="1">
          <mxGeometry width="50" height="50" relative="1" as="geometry">
            <mxPoint x="410" y="90" as="sourcePoint" />
            <mxPoint x="450" y="135" as="targetPoint" />
          </mxGeometry>
        </mxCell>
        <mxCell id="wm7McS8ciFP9YZ9LBugO-84" value="#classcode" style="ellipse;whiteSpace=wrap;html=1;" parent="1" vertex="1">
          <mxGeometry x="340" y="60" width="90" height="40" as="geometry" />
        </mxCell>
        <mxCell id="wm7McS8ciFP9YZ9LBugO-85" value="" style="endArrow=none;dashed=1;html=1;dashPattern=1 3;strokeWidth=2;entryX=0;entryY=0.5;entryDx=0;entryDy=0;" parent="1" target="wm7McS8ciFP9YZ9LBugO-70" edge="1">
          <mxGeometry width="50" height="50" relative="1" as="geometry">
            <mxPoint x="360" y="310" as="sourcePoint" />
            <mxPoint x="410" y="260" as="targetPoint" />
          </mxGeometry>
        </mxCell>
        <mxCell id="wm7McS8ciFP9YZ9LBugO-86" value="student_class" style="rounded=1;whiteSpace=wrap;html=1;" parent="1" vertex="1">
          <mxGeometry x="550" y="380" width="90" height="40" as="geometry" />
        </mxCell>
        <mxCell id="wm7McS8ciFP9YZ9LBugO-87" value="" style="endArrow=none;dashed=1;html=1;dashPattern=1 3;strokeWidth=2;entryX=0.5;entryY=1;entryDx=0;entryDy=0;" parent="1" target="wm7McS8ciFP9YZ9LBugO-94" edge="1">
          <mxGeometry width="50" height="50" relative="1" as="geometry">
            <mxPoint x="630" y="380" as="sourcePoint" />
            <mxPoint x="680" y="330" as="targetPoint" />
          </mxGeometry>
        </mxCell>
        <mxCell id="wm7McS8ciFP9YZ9LBugO-88" value="" style="endArrow=none;dashed=1;html=1;dashPattern=1 3;strokeWidth=2;" parent="1" edge="1">
          <mxGeometry width="50" height="50" relative="1" as="geometry">
            <mxPoint x="640" y="400" as="sourcePoint" />
            <mxPoint x="710" y="370" as="targetPoint" />
          </mxGeometry>
        </mxCell>
        <mxCell id="wm7McS8ciFP9YZ9LBugO-89" value="" style="endArrow=none;dashed=1;html=1;dashPattern=1 3;strokeWidth=2;exitX=1;exitY=1;exitDx=0;exitDy=0;entryX=0;entryY=0.5;entryDx=0;entryDy=0;" parent="1" source="wm7McS8ciFP9YZ9LBugO-86" target="wm7McS8ciFP9YZ9LBugO-96" edge="1">
          <mxGeometry width="50" height="50" relative="1" as="geometry">
            <mxPoint x="650" y="410" as="sourcePoint" />
            <mxPoint x="720" y="410" as="targetPoint" />
          </mxGeometry>
        </mxCell>
        <mxCell id="wm7McS8ciFP9YZ9LBugO-90" value="" style="endArrow=none;dashed=1;html=1;dashPattern=1 3;strokeWidth=2;exitX=0.5;exitY=0;exitDx=0;exitDy=0;" parent="1" source="wm7McS8ciFP9YZ9LBugO-86" edge="1">
          <mxGeometry width="50" height="50" relative="1" as="geometry">
            <mxPoint x="580" y="380" as="sourcePoint" />
            <mxPoint x="610" y="310" as="targetPoint" />
          </mxGeometry>
        </mxCell>
        <mxCell id="wm7McS8ciFP9YZ9LBugO-91" value="" style="endArrow=none;dashed=1;html=1;dashPattern=1 3;strokeWidth=2;" parent="1" edge="1">
          <mxGeometry width="50" height="50" relative="1" as="geometry">
            <mxPoint x="610" y="425" as="sourcePoint" />
            <mxPoint x="670" y="460" as="targetPoint" />
          </mxGeometry>
        </mxCell>
        <mxCell id="wm7McS8ciFP9YZ9LBugO-93" value="smailid" style="ellipse;whiteSpace=wrap;html=1;" parent="1" vertex="1">
          <mxGeometry x="560" y="280" width="90" height="40" as="geometry" />
        </mxCell>
        <mxCell id="wm7McS8ciFP9YZ9LBugO-94" value="scontactno" style="ellipse;whiteSpace=wrap;html=1;" parent="1" vertex="1">
          <mxGeometry x="660" y="290" width="90" height="40" as="geometry" />
        </mxCell>
        <mxCell id="wm7McS8ciFP9YZ9LBugO-95" value="scode" style="ellipse;whiteSpace=wrap;html=1;" parent="1" vertex="1">
          <mxGeometry x="710" y="350" width="90" height="40" as="geometry" />
        </mxCell>
        <mxCell id="wm7McS8ciFP9YZ9LBugO-96" value="sname" style="ellipse;whiteSpace=wrap;html=1;" parent="1" vertex="1">
          <mxGeometry x="710" y="400" width="90" height="40" as="geometry" />
        </mxCell>
        <mxCell id="wm7McS8ciFP9YZ9LBugO-97" value="created_on" style="ellipse;whiteSpace=wrap;html=1;" parent="1" vertex="1">
          <mxGeometry x="660" y="440" width="90" height="40" as="geometry" />
        </mxCell>
        <mxCell id="wm7McS8ciFP9YZ9LBugO-99" value="" style="endArrow=none;dashed=1;html=1;dashPattern=1 3;strokeWidth=2;entryX=0.25;entryY=0;entryDx=0;entryDy=0;exitX=0.68;exitY=1.085;exitDx=0;exitDy=0;exitPerimeter=0;" parent="1" source="wm7McS8ciFP9YZ9LBugO-100" target="wm7McS8ciFP9YZ9LBugO-86" edge="1">
          <mxGeometry width="50" height="50" relative="1" as="geometry">
            <mxPoint x="540" y="330" as="sourcePoint" />
            <mxPoint x="580" y="375" as="targetPoint" />
          </mxGeometry>
        </mxCell>
        <mxCell id="wm7McS8ciFP9YZ9LBugO-100" value="#id" style="ellipse;whiteSpace=wrap;html=1;" parent="1" vertex="1">
          <mxGeometry x="470" y="300" width="90" height="40" as="geometry" />
        </mxCell>
        <mxCell id="wm7McS8ciFP9YZ9LBugO-101" value="" style="endArrow=none;dashed=1;html=1;dashPattern=1 3;strokeWidth=2;exitX=0.75;exitY=1;exitDx=0;exitDy=0;entryX=0;entryY=0.5;entryDx=0;entryDy=0;" parent="1" source="wm7McS8ciFP9YZ9LBugO-57" target="wm7McS8ciFP9YZ9LBugO-86" edge="1">
          <mxGeometry width="50" height="50" relative="1" as="geometry">
            <mxPoint x="440" y="600" as="sourcePoint" />
            <mxPoint x="550" y="400" as="targetPoint" />
          </mxGeometry>
        </mxCell>
        <mxCell id="wm7McS8ciFP9YZ9LBugO-102" value="" style="endArrow=none;dashed=1;html=1;dashPattern=1 3;strokeWidth=2;entryX=0.1;entryY=1.075;entryDx=0;entryDy=0;entryPerimeter=0;" parent="1" target="wm7McS8ciFP9YZ9LBugO-70" edge="1">
          <mxGeometry width="50" height="50" relative="1" as="geometry">
            <mxPoint x="370" y="440" as="sourcePoint" />
            <mxPoint x="530" y="360" as="targetPoint" />
          </mxGeometry>
        </mxCell>
        <mxCell id="wm7McS8ciFP9YZ9LBugO-103" value="&lt;font style=&quot;font-size: 14px&quot;&gt;&lt;b&gt;Upload&lt;/b&gt;&lt;/font&gt;" style="rounded=1;whiteSpace=wrap;html=1;" parent="1" vertex="1">
          <mxGeometry x="320" y="440" width="100" height="40" as="geometry" />
        </mxCell>
        <mxCell id="wm7McS8ciFP9YZ9LBugO-105" value="upload" style="rounded=1;whiteSpace=wrap;html=1;" parent="1" vertex="1">
          <mxGeometry x="170" y="460" width="80" height="40" as="geometry" />
        </mxCell>
        <mxCell id="wm7McS8ciFP9YZ9LBugO-106" value="" style="endArrow=none;dashed=1;html=1;dashPattern=1 3;strokeWidth=2;exitX=0.25;exitY=0;exitDx=0;exitDy=0;" parent="1" source="wm7McS8ciFP9YZ9LBugO-105" edge="1">
          <mxGeometry width="50" height="50" relative="1" as="geometry">
            <mxPoint x="120" y="470" as="sourcePoint" />
            <mxPoint x="140" y="420" as="targetPoint" />
          </mxGeometry>
        </mxCell>
        <mxCell id="wm7McS8ciFP9YZ9LBugO-107" value="" style="endArrow=none;dashed=1;html=1;dashPattern=1 3;strokeWidth=2;exitX=0.729;exitY=1.025;exitDx=0;exitDy=0;exitPerimeter=0;" parent="1" source="wm7McS8ciFP9YZ9LBugO-109" edge="1">
          <mxGeometry width="50" height="50" relative="1" as="geometry">
            <mxPoint x="90" y="470" as="sourcePoint" />
            <mxPoint x="170" y="480" as="targetPoint" />
          </mxGeometry>
        </mxCell>
        <mxCell id="wm7McS8ciFP9YZ9LBugO-108" value="classcode" style="ellipse;whiteSpace=wrap;html=1;" parent="1" vertex="1">
          <mxGeometry x="100" y="380" width="90" height="40" as="geometry" />
        </mxCell>
        <mxCell id="wm7McS8ciFP9YZ9LBugO-109" value="post" style="ellipse;whiteSpace=wrap;html=1;" parent="1" vertex="1">
          <mxGeometry x="30" y="420" width="90" height="40" as="geometry" />
        </mxCell>
        <mxCell id="wm7McS8ciFP9YZ9LBugO-110" value="" style="endArrow=none;dashed=1;html=1;dashPattern=1 3;strokeWidth=2;entryX=0;entryY=1;entryDx=0;entryDy=0;" parent="1" target="wm7McS8ciFP9YZ9LBugO-105" edge="1">
          <mxGeometry width="50" height="50" relative="1" as="geometry">
            <mxPoint x="110" y="500" as="sourcePoint" />
            <mxPoint x="160" y="490" as="targetPoint" />
          </mxGeometry>
        </mxCell>
        <mxCell id="wm7McS8ciFP9YZ9LBugO-111" value="" style="endArrow=none;dashed=1;html=1;dashPattern=1 3;strokeWidth=2;entryX=0.5;entryY=0;entryDx=0;entryDy=0;exitX=0.5;exitY=1;exitDx=0;exitDy=0;exitPerimeter=0;" parent="1" source="wm7McS8ciFP9YZ9LBugO-113" target="wm7McS8ciFP9YZ9LBugO-105" edge="1">
          <mxGeometry width="50" height="50" relative="1" as="geometry">
            <mxPoint x="225" y="400" as="sourcePoint" />
            <mxPoint x="264.39" y="460" as="targetPoint" />
          </mxGeometry>
        </mxCell>
        <mxCell id="wm7McS8ciFP9YZ9LBugO-112" value="" style="endArrow=none;dashed=1;html=1;dashPattern=1 3;strokeWidth=2;entryX=0.335;entryY=1.085;entryDx=0;entryDy=0;entryPerimeter=0;" parent="1" target="wm7McS8ciFP9YZ9LBugO-105" edge="1">
          <mxGeometry width="50" height="50" relative="1" as="geometry">
            <mxPoint x="120" y="550" as="sourcePoint" />
            <mxPoint x="224.39" y="549" as="targetPoint" />
          </mxGeometry>
        </mxCell>
        <mxCell id="wm7McS8ciFP9YZ9LBugO-113" value="#id" style="ellipse;whiteSpace=wrap;html=1;" parent="1" vertex="1">
          <mxGeometry x="180" y="350" width="90" height="40" as="geometry" />
        </mxCell>
        <mxCell id="wm7McS8ciFP9YZ9LBugO-114" value="document" style="ellipse;whiteSpace=wrap;html=1;" parent="1" vertex="1">
          <mxGeometry x="30" y="480" width="90" height="40" as="geometry" />
        </mxCell>
        <mxCell id="wm7McS8ciFP9YZ9LBugO-115" value="filename" style="ellipse;whiteSpace=wrap;html=1;" parent="1" vertex="1">
          <mxGeometry x="30" y="540" width="90" height="40" as="geometry" />
        </mxCell>
        <mxCell id="wm7McS8ciFP9YZ9LBugO-116" value="upload_comment" style="rounded=1;whiteSpace=wrap;html=1;" parent="1" vertex="1">
          <mxGeometry x="210" y="716" width="110" height="40" as="geometry" />
        </mxCell>
        <mxCell id="wm7McS8ciFP9YZ9LBugO-117" value="" style="endArrow=none;dashed=1;html=1;dashPattern=1 3;strokeWidth=2;exitX=0.25;exitY=0;exitDx=0;exitDy=0;" parent="1" source="wm7McS8ciFP9YZ9LBugO-116" edge="1">
          <mxGeometry width="50" height="50" relative="1" as="geometry">
            <mxPoint x="160" y="726" as="sourcePoint" />
            <mxPoint x="180" y="676" as="targetPoint" />
          </mxGeometry>
        </mxCell>
        <mxCell id="wm7McS8ciFP9YZ9LBugO-118" value="" style="endArrow=none;dashed=1;html=1;dashPattern=1 3;strokeWidth=2;exitX=0.729;exitY=1.025;exitDx=0;exitDy=0;exitPerimeter=0;" parent="1" source="wm7McS8ciFP9YZ9LBugO-120" edge="1">
          <mxGeometry width="50" height="50" relative="1" as="geometry">
            <mxPoint x="130" y="726" as="sourcePoint" />
            <mxPoint x="210" y="736" as="targetPoint" />
          </mxGeometry>
        </mxCell>
        <mxCell id="wm7McS8ciFP9YZ9LBugO-119" value="msg_id" style="ellipse;whiteSpace=wrap;html=1;" parent="1" vertex="1">
          <mxGeometry x="140" y="636" width="90" height="40" as="geometry" />
        </mxCell>
        <mxCell id="wm7McS8ciFP9YZ9LBugO-120" value="comment" style="ellipse;whiteSpace=wrap;html=1;" parent="1" vertex="1">
          <mxGeometry x="70" y="676" width="90" height="40" as="geometry" />
        </mxCell>
        <mxCell id="wm7McS8ciFP9YZ9LBugO-121" value="" style="endArrow=none;dashed=1;html=1;dashPattern=1 3;strokeWidth=2;entryX=0;entryY=1;entryDx=0;entryDy=0;" parent="1" target="wm7McS8ciFP9YZ9LBugO-116" edge="1">
          <mxGeometry width="50" height="50" relative="1" as="geometry">
            <mxPoint x="150" y="756" as="sourcePoint" />
            <mxPoint x="200" y="746" as="targetPoint" />
          </mxGeometry>
        </mxCell>
        <mxCell id="wm7McS8ciFP9YZ9LBugO-122" value="" style="endArrow=none;dashed=1;html=1;dashPattern=1 3;strokeWidth=2;entryX=0.5;entryY=0;entryDx=0;entryDy=0;exitX=0.5;exitY=1;exitDx=0;exitDy=0;exitPerimeter=0;" parent="1" source="wm7McS8ciFP9YZ9LBugO-124" target="wm7McS8ciFP9YZ9LBugO-116" edge="1">
          <mxGeometry width="50" height="50" relative="1" as="geometry">
            <mxPoint x="265" y="656" as="sourcePoint" />
            <mxPoint x="304.39" y="716" as="targetPoint" />
          </mxGeometry>
        </mxCell>
        <mxCell id="wm7McS8ciFP9YZ9LBugO-123" value="" style="endArrow=none;dashed=1;html=1;dashPattern=1 3;strokeWidth=2;entryX=0.335;entryY=1.085;entryDx=0;entryDy=0;entryPerimeter=0;" parent="1" target="wm7McS8ciFP9YZ9LBugO-116" edge="1">
          <mxGeometry width="50" height="50" relative="1" as="geometry">
            <mxPoint x="160" y="806" as="sourcePoint" />
            <mxPoint x="264.39" y="805" as="targetPoint" />
          </mxGeometry>
        </mxCell>
        <mxCell id="wm7McS8ciFP9YZ9LBugO-124" value="#id" style="ellipse;whiteSpace=wrap;html=1;" parent="1" vertex="1">
          <mxGeometry x="220" y="606" width="90" height="40" as="geometry" />
        </mxCell>
        <mxCell id="wm7McS8ciFP9YZ9LBugO-125" value="date_cmnt" style="ellipse;whiteSpace=wrap;html=1;" parent="1" vertex="1">
          <mxGeometry x="70" y="736" width="90" height="40" as="geometry" />
        </mxCell>
        <mxCell id="wm7McS8ciFP9YZ9LBugO-126" value="time_cmnt" style="ellipse;whiteSpace=wrap;html=1;" parent="1" vertex="1">
          <mxGeometry x="80" y="786" width="90" height="40" as="geometry" />
        </mxCell>
        <mxCell id="wm7McS8ciFP9YZ9LBugO-138" value="assignment" style="rounded=1;whiteSpace=wrap;html=1;" parent="1" vertex="1">
          <mxGeometry x="410" y="610" width="90" height="40" as="geometry" />
        </mxCell>
        <mxCell id="wm7McS8ciFP9YZ9LBugO-139" value="" style="endArrow=none;dashed=1;html=1;dashPattern=1 3;strokeWidth=2;entryX=0.5;entryY=1;entryDx=0;entryDy=0;" parent="1" target="wm7McS8ciFP9YZ9LBugO-145" edge="1">
          <mxGeometry width="50" height="50" relative="1" as="geometry">
            <mxPoint x="490" y="610" as="sourcePoint" />
            <mxPoint x="540" y="560" as="targetPoint" />
          </mxGeometry>
        </mxCell>
        <mxCell id="wm7McS8ciFP9YZ9LBugO-140" value="" style="endArrow=none;dashed=1;html=1;dashPattern=1 3;strokeWidth=2;" parent="1" edge="1">
          <mxGeometry width="50" height="50" relative="1" as="geometry">
            <mxPoint x="500" y="630" as="sourcePoint" />
            <mxPoint x="570" y="600" as="targetPoint" />
          </mxGeometry>
        </mxCell>
        <mxCell id="wm7McS8ciFP9YZ9LBugO-141" value="" style="endArrow=none;dashed=1;html=1;dashPattern=1 3;strokeWidth=2;exitX=1;exitY=1;exitDx=0;exitDy=0;entryX=0;entryY=0.5;entryDx=0;entryDy=0;" parent="1" source="wm7McS8ciFP9YZ9LBugO-138" target="wm7McS8ciFP9YZ9LBugO-147" edge="1">
          <mxGeometry width="50" height="50" relative="1" as="geometry">
            <mxPoint x="510" y="640" as="sourcePoint" />
            <mxPoint x="580" y="640" as="targetPoint" />
          </mxGeometry>
        </mxCell>
        <mxCell id="wm7McS8ciFP9YZ9LBugO-142" value="" style="endArrow=none;dashed=1;html=1;dashPattern=1 3;strokeWidth=2;exitX=0.5;exitY=0;exitDx=0;exitDy=0;" parent="1" source="wm7McS8ciFP9YZ9LBugO-138" edge="1">
          <mxGeometry width="50" height="50" relative="1" as="geometry">
            <mxPoint x="440" y="610" as="sourcePoint" />
            <mxPoint x="470" y="540" as="targetPoint" />
          </mxGeometry>
        </mxCell>
        <mxCell id="wm7McS8ciFP9YZ9LBugO-143" value="" style="endArrow=none;dashed=1;html=1;dashPattern=1 3;strokeWidth=2;" parent="1" edge="1">
          <mxGeometry width="50" height="50" relative="1" as="geometry">
            <mxPoint x="470" y="655" as="sourcePoint" />
            <mxPoint x="530" y="690" as="targetPoint" />
          </mxGeometry>
        </mxCell>
        <mxCell id="wm7McS8ciFP9YZ9LBugO-144" value="#id" style="ellipse;whiteSpace=wrap;html=1;" parent="1" vertex="1">
          <mxGeometry x="420" y="510" width="90" height="40" as="geometry" />
        </mxCell>
        <mxCell id="wm7McS8ciFP9YZ9LBugO-145" value="title" style="ellipse;whiteSpace=wrap;html=1;" parent="1" vertex="1">
          <mxGeometry x="520" y="520" width="90" height="40" as="geometry" />
        </mxCell>
        <mxCell id="wm7McS8ciFP9YZ9LBugO-146" value="points" style="ellipse;whiteSpace=wrap;html=1;" parent="1" vertex="1">
          <mxGeometry x="570" y="580" width="90" height="40" as="geometry" />
        </mxCell>
        <mxCell id="wm7McS8ciFP9YZ9LBugO-147" value="due_date" style="ellipse;whiteSpace=wrap;html=1;" parent="1" vertex="1">
          <mxGeometry x="570" y="630" width="90" height="40" as="geometry" />
        </mxCell>
        <mxCell id="wm7McS8ciFP9YZ9LBugO-148" value="topic" style="ellipse;whiteSpace=wrap;html=1;" parent="1" vertex="1">
          <mxGeometry x="520" y="670" width="90" height="40" as="geometry" />
        </mxCell>
        <mxCell id="wm7McS8ciFP9YZ9LBugO-151" value="" style="endArrow=none;dashed=1;html=1;dashPattern=1 3;strokeWidth=2;exitX=1;exitY=0.5;exitDx=0;exitDy=0;entryX=0;entryY=0.5;entryDx=0;entryDy=0;" parent="1" source="wm7McS8ciFP9YZ9LBugO-105" target="wm7McS8ciFP9YZ9LBugO-103" edge="1">
          <mxGeometry width="50" height="50" relative="1" as="geometry">
            <mxPoint x="480" y="610" as="sourcePoint" />
            <mxPoint x="530" y="560" as="targetPoint" />
          </mxGeometry>
        </mxCell>
        <mxCell id="wm7McS8ciFP9YZ9LBugO-152" value="" style="endArrow=none;dashed=1;html=1;dashPattern=1 3;strokeWidth=2;entryX=0.25;entryY=1;entryDx=0;entryDy=0;exitX=0.88;exitY=0.035;exitDx=0;exitDy=0;exitPerimeter=0;" parent="1" source="wm7McS8ciFP9YZ9LBugO-116" target="wm7McS8ciFP9YZ9LBugO-103" edge="1">
          <mxGeometry width="50" height="50" relative="1" as="geometry">
            <mxPoint x="290" y="620" as="sourcePoint" />
            <mxPoint x="530" y="560" as="targetPoint" />
          </mxGeometry>
        </mxCell>
        <mxCell id="wm7McS8ciFP9YZ9LBugO-153" value="" style="endArrow=none;dashed=1;html=1;dashPattern=1 3;strokeWidth=2;entryX=0.388;entryY=1.035;entryDx=0;entryDy=0;entryPerimeter=0;" parent="1" target="wm7McS8ciFP9YZ9LBugO-103" edge="1">
          <mxGeometry width="50" height="50" relative="1" as="geometry">
            <mxPoint x="430" y="610" as="sourcePoint" />
            <mxPoint x="530" y="560" as="targetPoint" />
          </mxGeometry>
        </mxCell>
        <mxCell id="wm7McS8ciFP9YZ9LBugO-156" value="" style="endArrow=none;dashed=1;html=1;dashPattern=1 3;strokeWidth=2;exitX=0.733;exitY=-0.055;exitDx=0;exitDy=0;exitPerimeter=0;" parent="1" source="wm7McS8ciFP9YZ9LBugO-158" edge="1">
          <mxGeometry width="50" height="50" relative="1" as="geometry">
            <mxPoint x="180" y="540" as="sourcePoint" />
            <mxPoint x="210" y="500" as="targetPoint" />
          </mxGeometry>
        </mxCell>
        <mxCell id="wm7McS8ciFP9YZ9LBugO-158" value="date" style="ellipse;whiteSpace=wrap;html=1;" parent="1" vertex="1">
          <mxGeometry x="120" y="560" width="60" height="40" as="geometry" />
        </mxCell>
        <mxCell id="wm7McS8ciFP9YZ9LBugO-159" value="" style="endArrow=none;dashed=1;html=1;dashPattern=1 3;strokeWidth=2;exitX=0.5;exitY=0;exitDx=0;exitDy=0;" parent="1" source="wm7McS8ciFP9YZ9LBugO-160" edge="1">
          <mxGeometry width="50" height="50" relative="1" as="geometry">
            <mxPoint x="220" y="530" as="sourcePoint" />
            <mxPoint x="220" y="500" as="targetPoint" />
          </mxGeometry>
        </mxCell>
        <mxCell id="wm7McS8ciFP9YZ9LBugO-160" value="time" style="ellipse;whiteSpace=wrap;html=1;" parent="1" vertex="1">
          <mxGeometry x="190" y="566" width="60" height="40" as="geometry" />
        </mxCell>
        <mxCell id="wm7McS8ciFP9YZ9LBugO-163" value="" style="endArrow=none;dashed=1;html=1;dashPattern=1 3;strokeWidth=2;" parent="1" edge="1">
          <mxGeometry width="50" height="50" relative="1" as="geometry">
            <mxPoint x="270" y="550" as="sourcePoint" />
            <mxPoint x="250" y="500" as="targetPoint" />
          </mxGeometry>
        </mxCell>
        <mxCell id="wm7McS8ciFP9YZ9LBugO-164" value="msg_author" style="ellipse;whiteSpace=wrap;html=1;" parent="1" vertex="1">
          <mxGeometry x="250" y="550" width="80" height="40" as="geometry" />
        </mxCell>
        <mxCell id="wm7McS8ciFP9YZ9LBugO-165" value="" style="endArrow=none;dashed=1;html=1;dashPattern=1 3;strokeWidth=2;" parent="1" edge="1">
          <mxGeometry width="50" height="50" relative="1" as="geometry">
            <mxPoint x="270" y="500" as="sourcePoint" />
            <mxPoint x="250" y="490" as="targetPoint" />
          </mxGeometry>
        </mxCell>
        <mxCell id="wm7McS8ciFP9YZ9LBugO-166" value="created_on" style="ellipse;whiteSpace=wrap;html=1;" parent="1" vertex="1">
          <mxGeometry x="260" y="490" width="70" height="40" as="geometry" />
        </mxCell>
        <mxCell id="wm7McS8ciFP9YZ9LBugO-167" value="" style="endArrow=none;dashed=1;html=1;dashPattern=1 3;strokeWidth=2;" parent="1" edge="1">
          <mxGeometry width="50" height="50" relative="1" as="geometry">
            <mxPoint x="230" y="806" as="sourcePoint" />
            <mxPoint x="270" y="756" as="targetPoint" />
          </mxGeometry>
        </mxCell>
        <mxCell id="wm7McS8ciFP9YZ9LBugO-168" value="" style="endArrow=none;dashed=1;html=1;dashPattern=1 3;strokeWidth=2;exitX=0.37;exitY=-0.035;exitDx=0;exitDy=0;exitPerimeter=0;" parent="1" source="wm7McS8ciFP9YZ9LBugO-170" edge="1">
          <mxGeometry width="50" height="50" relative="1" as="geometry">
            <mxPoint x="270" y="800" as="sourcePoint" />
            <mxPoint x="280" y="760" as="targetPoint" />
          </mxGeometry>
        </mxCell>
        <mxCell id="wm7McS8ciFP9YZ9LBugO-169" value="reply_author" style="ellipse;whiteSpace=wrap;html=1;" parent="1" vertex="1">
          <mxGeometry x="180" y="800" width="80" height="40" as="geometry" />
        </mxCell>
        <mxCell id="wm7McS8ciFP9YZ9LBugO-170" value="created_on" style="ellipse;whiteSpace=wrap;html=1;" parent="1" vertex="1">
          <mxGeometry x="270" y="790" width="70" height="40" as="geometry" />
        </mxCell>
        <mxCell id="wm7McS8ciFP9YZ9LBugO-171" value="" style="endArrow=none;dashed=1;html=1;dashPattern=1 3;strokeWidth=2;entryX=0;entryY=0.25;entryDx=0;entryDy=0;" parent="1" target="wm7McS8ciFP9YZ9LBugO-138" edge="1">
          <mxGeometry width="50" height="50" relative="1" as="geometry">
            <mxPoint x="370" y="610" as="sourcePoint" />
            <mxPoint x="530" y="520" as="targetPoint" />
          </mxGeometry>
        </mxCell>
        <mxCell id="wm7McS8ciFP9YZ9LBugO-173" value="" style="endArrow=none;dashed=1;html=1;dashPattern=1 3;strokeWidth=2;entryX=0.409;entryY=1.085;entryDx=0;entryDy=0;entryPerimeter=0;exitX=0.5;exitY=0;exitDx=0;exitDy=0;" parent="1" source="wm7McS8ciFP9YZ9LBugO-184" target="wm7McS8ciFP9YZ9LBugO-138" edge="1">
          <mxGeometry width="50" height="50" relative="1" as="geometry">
            <mxPoint x="447" y="710" as="sourcePoint" />
            <mxPoint x="530" y="520" as="targetPoint" />
          </mxGeometry>
        </mxCell>
        <mxCell id="wm7McS8ciFP9YZ9LBugO-174" value="" style="endArrow=none;dashed=1;html=1;dashPattern=1 3;strokeWidth=2;entryX=0.25;entryY=1;entryDx=0;entryDy=0;exitX=0.667;exitY=0;exitDx=0;exitDy=0;exitPerimeter=0;" parent="1" source="wm7McS8ciFP9YZ9LBugO-186" target="wm7McS8ciFP9YZ9LBugO-138" edge="1">
          <mxGeometry width="50" height="50" relative="1" as="geometry">
            <mxPoint x="420" y="690" as="sourcePoint" />
            <mxPoint x="430" y="660" as="targetPoint" />
          </mxGeometry>
        </mxCell>
        <mxCell id="wm7McS8ciFP9YZ9LBugO-175" value="" style="endArrow=none;dashed=1;html=1;dashPattern=1 3;strokeWidth=2;" parent="1" edge="1">
          <mxGeometry width="50" height="50" relative="1" as="geometry">
            <mxPoint x="490" y="710" as="sourcePoint" />
            <mxPoint x="455" y="651" as="targetPoint" />
          </mxGeometry>
        </mxCell>
        <mxCell id="wm7McS8ciFP9YZ9LBugO-176" value="" style="endArrow=none;dashed=1;html=1;dashPattern=1 3;strokeWidth=2;entryX=0.089;entryY=1.045;entryDx=0;entryDy=0;entryPerimeter=0;exitX=1;exitY=0;exitDx=0;exitDy=0;" parent="1" source="wm7McS8ciFP9YZ9LBugO-187" target="wm7McS8ciFP9YZ9LBugO-138" edge="1">
          <mxGeometry width="50" height="50" relative="1" as="geometry">
            <mxPoint x="400" y="690" as="sourcePoint" />
            <mxPoint x="466.80999999999995" y="673.4000000000001" as="targetPoint" />
          </mxGeometry>
        </mxCell>
        <mxCell id="wm7McS8ciFP9YZ9LBugO-178" value="" style="endArrow=none;dashed=1;html=1;dashPattern=1 3;strokeWidth=2;entryX=0.75;entryY=0;entryDx=0;entryDy=0;" parent="1" target="wm7McS8ciFP9YZ9LBugO-138" edge="1">
          <mxGeometry width="50" height="50" relative="1" as="geometry">
            <mxPoint x="530" y="500" as="sourcePoint" />
            <mxPoint x="420" y="650" as="targetPoint" />
          </mxGeometry>
        </mxCell>
        <mxCell id="wm7McS8ciFP9YZ9LBugO-179" value="" style="endArrow=none;dashed=1;html=1;dashPattern=1 3;strokeWidth=2;entryX=0;entryY=0.5;entryDx=0;entryDy=0;" parent="1" source="wm7McS8ciFP9YZ9LBugO-189" target="wm7McS8ciFP9YZ9LBugO-138" edge="1">
          <mxGeometry width="50" height="50" relative="1" as="geometry">
            <mxPoint x="340" y="660" as="sourcePoint" />
            <mxPoint x="430" y="660" as="targetPoint" />
          </mxGeometry>
        </mxCell>
        <mxCell id="wm7McS8ciFP9YZ9LBugO-180" value="" style="endArrow=none;dashed=1;html=1;dashPattern=1 3;strokeWidth=2;entryX=1;entryY=0.25;entryDx=0;entryDy=0;" parent="1" target="wm7McS8ciFP9YZ9LBugO-138" edge="1">
          <mxGeometry width="50" height="50" relative="1" as="geometry">
            <mxPoint x="630" y="550" as="sourcePoint" />
            <mxPoint x="440" y="670" as="targetPoint" />
          </mxGeometry>
        </mxCell>
        <mxCell id="wm7McS8ciFP9YZ9LBugO-181" value="classcode" style="ellipse;whiteSpace=wrap;html=1;" parent="1" vertex="1">
          <mxGeometry x="490" y="460" width="70" height="40" as="geometry" />
        </mxCell>
        <mxCell id="wm7McS8ciFP9YZ9LBugO-182" value="instruction" style="ellipse;whiteSpace=wrap;html=1;" parent="1" vertex="1">
          <mxGeometry x="620" y="520" width="80" height="40" as="geometry" />
        </mxCell>
        <mxCell id="wm7McS8ciFP9YZ9LBugO-183" value="assign_file" style="ellipse;whiteSpace=wrap;html=1;" parent="1" vertex="1">
          <mxGeometry x="470" y="700" width="70" height="40" as="geometry" />
        </mxCell>
        <mxCell id="wm7McS8ciFP9YZ9LBugO-184" value="assign_file_name" style="ellipse;whiteSpace=wrap;html=1;" parent="1" vertex="1">
          <mxGeometry x="410" y="746" width="110" height="40" as="geometry" />
        </mxCell>
        <mxCell id="wm7McS8ciFP9YZ9LBugO-186" value="date" style="ellipse;whiteSpace=wrap;html=1;" parent="1" vertex="1">
          <mxGeometry x="350" y="730" width="60" height="40" as="geometry" />
        </mxCell>
        <mxCell id="wm7McS8ciFP9YZ9LBugO-187" value="time" style="ellipse;whiteSpace=wrap;html=1;" parent="1" vertex="1">
          <mxGeometry x="340" y="676" width="60" height="40" as="geometry" />
        </mxCell>
        <mxCell id="wm7McS8ciFP9YZ9LBugO-188" value="created_on" style="ellipse;whiteSpace=wrap;html=1;" parent="1" vertex="1">
          <mxGeometry x="330" y="590" width="70" height="40" as="geometry" />
        </mxCell>
        <mxCell id="wm7McS8ciFP9YZ9LBugO-189" value="author" style="ellipse;whiteSpace=wrap;html=1;" parent="1" vertex="1">
          <mxGeometry x="320" y="636" width="60" height="40" as="geometry" />
        </mxCell>
        <mxCell id="wm7McS8ciFP9YZ9LBugO-190" value="" style="endArrow=none;dashed=1;html=1;dashPattern=1 3;strokeWidth=2;entryX=0;entryY=0.5;entryDx=0;entryDy=0;" parent="1" target="wm7McS8ciFP9YZ9LBugO-189" edge="1">
          <mxGeometry width="50" height="50" relative="1" as="geometry">
            <mxPoint x="340" y="660" as="sourcePoint" />
            <mxPoint x="410" y="630" as="targetPoint" />
          </mxGeometry>
        </mxCell>
        <mxCell id="wm7McS8ciFP9YZ9LBugO-191" value="" style="endArrow=none;dashed=1;html=1;dashPattern=1 3;strokeWidth=2;exitX=1;exitY=0.75;exitDx=0;exitDy=0;" parent="1" source="wm7McS8ciFP9YZ9LBugO-138" edge="1">
          <mxGeometry width="50" height="50" relative="1" as="geometry">
            <mxPoint x="480" y="570" as="sourcePoint" />
            <mxPoint x="670" y="620" as="targetPoint" />
          </mxGeometry>
        </mxCell>
        <mxCell id="wm7McS8ciFP9YZ9LBugO-192" value="due_time" style="ellipse;whiteSpace=wrap;html=1;" parent="1" vertex="1">
          <mxGeometry x="660" y="596" width="60" height="40" as="geometry" />
        </mxCell>
        <mxCell id="hjP_1WC3sItxOrgLeP6L-1" value="" style="endArrow=none;dashed=1;html=1;dashPattern=1 3;strokeWidth=2;entryX=0.5;entryY=1;entryDx=0;entryDy=0;" edge="1" parent="1" target="wm7McS8ciFP9YZ9LBugO-86">
          <mxGeometry width="50" height="50" relative="1" as="geometry">
            <mxPoint x="760" y="570" as="sourcePoint" />
            <mxPoint x="550" y="560" as="targetPoint" />
          </mxGeometry>
        </mxCell>
        <mxCell id="hjP_1WC3sItxOrgLeP6L-2" value="&lt;font style=&quot;font-size: 14px&quot;&gt;&lt;b&gt;Upload&lt;/b&gt;&lt;/font&gt;" style="rounded=1;whiteSpace=wrap;html=1;" vertex="1" parent="1">
          <mxGeometry x="720" y="568" width="80" height="36" as="geometry" />
        </mxCell>
        <mxCell id="hjP_1WC3sItxOrgLeP6L-3" value="" style="endArrow=none;dashed=1;html=1;dashPattern=1 3;strokeWidth=2;" edge="1" parent="1" target="hjP_1WC3sItxOrgLeP6L-2">
          <mxGeometry width="50" height="50" relative="1" as="geometry">
            <mxPoint x="745" y="670" as="sourcePoint" />
            <mxPoint x="550" y="560" as="targetPoint" />
          </mxGeometry>
        </mxCell>
        <mxCell id="hjP_1WC3sItxOrgLeP6L-4" value="#id" style="ellipse;whiteSpace=wrap;html=1;" vertex="1" parent="1">
          <mxGeometry x="600" y="736" width="90" height="40" as="geometry" />
        </mxCell>
        <mxCell id="hjP_1WC3sItxOrgLeP6L-5" value="student_assignment&lt;br&gt;_upload" style="rounded=0;whiteSpace=wrap;html=1;" vertex="1" parent="1">
          <mxGeometry x="690" y="666" width="120" height="34" as="geometry" />
        </mxCell>
        <mxCell id="hjP_1WC3sItxOrgLeP6L-6" value="" style="endArrow=none;dashed=1;html=1;dashPattern=1 3;strokeWidth=2;" edge="1" parent="1">
          <mxGeometry width="50" height="50" relative="1" as="geometry">
            <mxPoint x="650" y="740" as="sourcePoint" />
            <mxPoint x="689.9957142857143" y="687" as="targetPoint" />
          </mxGeometry>
        </mxCell>
        <mxCell id="hjP_1WC3sItxOrgLeP6L-7" value="" style="endArrow=none;dashed=1;html=1;dashPattern=1 3;strokeWidth=2;exitX=0.756;exitY=0.055;exitDx=0;exitDy=0;exitPerimeter=0;" edge="1" parent="1" source="hjP_1WC3sItxOrgLeP6L-12">
          <mxGeometry width="50" height="50" relative="1" as="geometry">
            <mxPoint x="700" y="760" as="sourcePoint" />
            <mxPoint x="720" y="700" as="targetPoint" />
          </mxGeometry>
        </mxCell>
        <mxCell id="hjP_1WC3sItxOrgLeP6L-8" value="" style="endArrow=none;dashed=1;html=1;dashPattern=1 3;strokeWidth=2;exitX=0.427;exitY=-0.085;exitDx=0;exitDy=0;exitPerimeter=0;" edge="1" parent="1" source="hjP_1WC3sItxOrgLeP6L-13">
          <mxGeometry width="50" height="50" relative="1" as="geometry">
            <mxPoint x="732" y="766" as="sourcePoint" />
            <mxPoint x="731.7857142857142" y="700" as="targetPoint" />
          </mxGeometry>
        </mxCell>
        <mxCell id="hjP_1WC3sItxOrgLeP6L-9" value="" style="endArrow=none;dashed=1;html=1;dashPattern=1 3;strokeWidth=2;exitX=0.244;exitY=0.055;exitDx=0;exitDy=0;exitPerimeter=0;" edge="1" parent="1" source="hjP_1WC3sItxOrgLeP6L-14">
          <mxGeometry width="50" height="50" relative="1" as="geometry">
            <mxPoint x="760" y="766" as="sourcePoint" />
            <mxPoint x="749.9957142857143" y="700" as="targetPoint" />
          </mxGeometry>
        </mxCell>
        <mxCell id="hjP_1WC3sItxOrgLeP6L-10" value="" style="endArrow=none;dashed=1;html=1;dashPattern=1 3;strokeWidth=2;entryX=0.653;entryY=0.994;entryDx=0;entryDy=0;entryPerimeter=0;exitX=0;exitY=0.5;exitDx=0;exitDy=0;" edge="1" parent="1" source="hjP_1WC3sItxOrgLeP6L-15" target="hjP_1WC3sItxOrgLeP6L-5">
          <mxGeometry width="50" height="50" relative="1" as="geometry">
            <mxPoint x="790" y="766" as="sourcePoint" />
            <mxPoint x="770" y="710" as="targetPoint" />
          </mxGeometry>
        </mxCell>
        <mxCell id="hjP_1WC3sItxOrgLeP6L-11" value="" style="endArrow=none;dashed=1;html=1;dashPattern=1 3;strokeWidth=2;exitX=0;exitY=0.5;exitDx=0;exitDy=0;" edge="1" parent="1" source="hjP_1WC3sItxOrgLeP6L-16">
          <mxGeometry width="50" height="50" relative="1" as="geometry">
            <mxPoint x="820" y="766" as="sourcePoint" />
            <mxPoint x="799.7857142857142" y="700" as="targetPoint" />
          </mxGeometry>
        </mxCell>
        <mxCell id="hjP_1WC3sItxOrgLeP6L-12" value="assign_id" style="ellipse;whiteSpace=wrap;html=1;" vertex="1" parent="1">
          <mxGeometry x="630" y="776" width="90" height="40" as="geometry" />
        </mxCell>
        <mxCell id="hjP_1WC3sItxOrgLeP6L-13" value="sid" style="ellipse;whiteSpace=wrap;html=1;" vertex="1" parent="1">
          <mxGeometry x="710" y="800" width="90" height="40" as="geometry" />
        </mxCell>
        <mxCell id="hjP_1WC3sItxOrgLeP6L-14" value="classcode" style="ellipse;whiteSpace=wrap;html=1;" vertex="1" parent="1">
          <mxGeometry x="800" y="776" width="90" height="40" as="geometry" />
        </mxCell>
        <mxCell id="hjP_1WC3sItxOrgLeP6L-15" value="student_file" style="ellipse;whiteSpace=wrap;html=1;" vertex="1" parent="1">
          <mxGeometry x="840" y="730" width="90" height="40" as="geometry" />
        </mxCell>
        <mxCell id="hjP_1WC3sItxOrgLeP6L-16" value="student_file_name" style="ellipse;whiteSpace=wrap;html=1;" vertex="1" parent="1">
          <mxGeometry x="840" y="670" width="120" height="40" as="geometry" />
        </mxCell>
        <mxCell id="hjP_1WC3sItxOrgLeP6L-17" value="" style="endArrow=none;dashed=1;html=1;dashPattern=1 3;strokeWidth=2;" edge="1" parent="1">
          <mxGeometry width="50" height="50" relative="1" as="geometry">
            <mxPoint x="840" y="530" as="sourcePoint" />
            <mxPoint x="799.7857142857142" y="590" as="targetPoint" />
          </mxGeometry>
        </mxCell>
        <mxCell id="hjP_1WC3sItxOrgLeP6L-18" value="student_assignment&lt;br&gt;_reply" style="rounded=0;whiteSpace=wrap;html=1;" vertex="1" parent="1">
          <mxGeometry x="780" y="496" width="120" height="34" as="geometry" />
        </mxCell>
        <mxCell id="hjP_1WC3sItxOrgLeP6L-20" value="" style="endArrow=none;dashed=1;html=1;dashPattern=1 3;strokeWidth=2;exitX=0.197;exitY=-0.147;exitDx=0;exitDy=0;exitPerimeter=0;" edge="1" parent="1" source="hjP_1WC3sItxOrgLeP6L-18">
          <mxGeometry width="50" height="50" relative="1" as="geometry">
            <mxPoint x="850" y="540" as="sourcePoint" />
            <mxPoint x="830" y="420" as="targetPoint" />
          </mxGeometry>
        </mxCell>
        <mxCell id="hjP_1WC3sItxOrgLeP6L-21" value="#id" style="ellipse;whiteSpace=wrap;html=1;" vertex="1" parent="1">
          <mxGeometry x="795" y="380" width="90" height="40" as="geometry" />
        </mxCell>
        <mxCell id="hjP_1WC3sItxOrgLeP6L-22" value="assign_id" style="ellipse;whiteSpace=wrap;html=1;" vertex="1" parent="1">
          <mxGeometry x="900" y="370" width="90" height="40" as="geometry" />
        </mxCell>
        <mxCell id="hjP_1WC3sItxOrgLeP6L-23" value="author" style="ellipse;whiteSpace=wrap;html=1;" vertex="1" parent="1">
          <mxGeometry x="910" y="420" width="90" height="40" as="geometry" />
        </mxCell>
        <mxCell id="hjP_1WC3sItxOrgLeP6L-24" value="assign_comment" style="ellipse;whiteSpace=wrap;html=1;" vertex="1" parent="1">
          <mxGeometry x="920" y="470" width="110" height="40" as="geometry" />
        </mxCell>
        <mxCell id="hjP_1WC3sItxOrgLeP6L-25" value="assign_&lt;br&gt;classcode" style="ellipse;whiteSpace=wrap;html=1;" vertex="1" parent="1">
          <mxGeometry x="880" y="550" width="90" height="40" as="geometry" />
        </mxCell>
        <mxCell id="hjP_1WC3sItxOrgLeP6L-26" value="" style="endArrow=none;dashed=1;html=1;dashPattern=1 3;strokeWidth=2;entryX=0;entryY=1;entryDx=0;entryDy=0;exitX=0.31;exitY=-0.006;exitDx=0;exitDy=0;exitPerimeter=0;" edge="1" parent="1" source="hjP_1WC3sItxOrgLeP6L-18" target="hjP_1WC3sItxOrgLeP6L-22">
          <mxGeometry width="50" height="50" relative="1" as="geometry">
            <mxPoint x="820" y="490" as="sourcePoint" />
            <mxPoint x="840" y="430" as="targetPoint" />
          </mxGeometry>
        </mxCell>
        <mxCell id="hjP_1WC3sItxOrgLeP6L-27" value="" style="endArrow=none;dashed=1;html=1;dashPattern=1 3;strokeWidth=2;entryX=0.009;entryY=0.815;entryDx=0;entryDy=0;entryPerimeter=0;exitX=0.5;exitY=0;exitDx=0;exitDy=0;" edge="1" parent="1" source="hjP_1WC3sItxOrgLeP6L-18" target="hjP_1WC3sItxOrgLeP6L-23">
          <mxGeometry width="50" height="50" relative="1" as="geometry">
            <mxPoint x="850" y="490" as="sourcePoint" />
            <mxPoint x="850" y="440" as="targetPoint" />
          </mxGeometry>
        </mxCell>
        <mxCell id="hjP_1WC3sItxOrgLeP6L-28" value="" style="endArrow=none;dashed=1;html=1;dashPattern=1 3;strokeWidth=2;exitX=1;exitY=0.5;exitDx=0;exitDy=0;entryX=0;entryY=0.5;entryDx=0;entryDy=0;" edge="1" parent="1" source="hjP_1WC3sItxOrgLeP6L-18" target="hjP_1WC3sItxOrgLeP6L-24">
          <mxGeometry width="50" height="50" relative="1" as="geometry">
            <mxPoint x="833.6400000000001" y="521.002" as="sourcePoint" />
            <mxPoint x="860" y="450" as="targetPoint" />
          </mxGeometry>
        </mxCell>
        <mxCell id="hjP_1WC3sItxOrgLeP6L-29" value="" style="endArrow=none;dashed=1;html=1;dashPattern=1 3;strokeWidth=2;exitX=0.677;exitY=1.029;exitDx=0;exitDy=0;exitPerimeter=0;entryX=0;entryY=0;entryDx=0;entryDy=0;" edge="1" parent="1" source="hjP_1WC3sItxOrgLeP6L-18" target="hjP_1WC3sItxOrgLeP6L-25">
          <mxGeometry width="50" height="50" relative="1" as="geometry">
            <mxPoint x="843.6400000000001" y="531.002" as="sourcePoint" />
            <mxPoint x="870" y="460" as="targetPoint" />
          </mxGeometry>
        </mxCell>
      </root>
    </mxGraphModel>
  </diagram>
</mxfile>
